<?xml version="1.0" encoding="utf-8"?>
<!-- Generator: Adobe Illustrator 24.3.0, SVG Export Plug-In . SVG Version: 6.00 Build 0)  -->
<svg version="1.1" id="Capa_1" xmlns="http://www.w3.org/2000/svg" xmlns:xlink="http://www.w3.org/1999/xlink" x="0px" y="0px"
	 viewBox="0 0 16 16" style="enable-background:new 0 0 16 16;" xml:space="preserve">
<style type="text/css">
	.st0{fill:#FFFFFF;}
</style>
<path class="st0" d="M12.6,15c1.3,0,2.4-1.2,2.4-2.5V5H1v7.5C1,13.8,2,15,3.4,15C3.4,15,12.6,15,12.6,15z M5.5,7h5
	C10.8,7,11,7.2,11,7.5S10.8,8,10.5,8h-5C5.2,8,5,7.8,5,7.5S5.2,7,5.5,7z M0.8,1C0.4,1,0,1.4,0,1.8V3c0,0.4,0.4,0.8,0.8,0.8h14.4
	C15.6,3.8,16,3.4,16,3l0,0V1.8C16,1.4,15.6,1,15.2,1l0,0C15.2,1,0.8,1,0.8,1z"/>
</svg>
